<svg xmlns="http://www.w3.org/2000/svg" viewBox="0 0 1200 900">
  <path fill="white" d="M-72 590C45 348 171 183 371 100c134-56 305-59 392 22 54 50 65 124 25 183-51 77-169 81-278 92-93 9-178 31-214 97-28 52 6 110 77 127 98 24 223-17 323 29 78 36 92 103 29 150-93 70-291 25-454-47C122 688 13 648-72 590Z"/>
  <path fill="white" d="M9 664C132 555 276 500 438 498c114-1 206 23 319 25 86 1 150-11 195-29 32-13 57 17 31 45-65 69-229 105-389 87-157-17-272-80-422-31-52 17-100 49-163 69Z" opacity=".72"/>
</svg>
