<svg xmlns="http://www.w3.org/2000/svg" viewBox="0 0 1100 900">
  <path fill="white" d="M1118 300C1027 173 864 139 734 199c-114 53-192 167-178 282 13 110 111 181 228 164 104-15 189-96 190-194 1-71-45-131-115-149-75-19-151 19-173 84-22 66 15 132 85 151 93 25 197-41 265-123 38-45 64-89 82-114Z"/>
  <path fill="white" d="M651 572c-128 89-313 99-454 29C87 547 30 451 52 357c24-102 133-179 244-170 99 8 177 78 184 164 7 84-54 153-139 157-70 4-128-38-141-99-13-63 28-125 95-145 111-34 217 38 262 154 28 73 50 119 94 154Z" opacity=".86"/>
</svg>
