<svg xmlns="http://www.w3.org/2000/svg" viewBox="0 0 1600 520">
  <path fill="white" d="M-96 396C125 277 274 220 458 234c178 14 284 96 452 105 190 10 295-88 461-156 136-55 298-58 388 9 51 38 50 91-6 120-79 41-213 11-332-17-120-28-217-43-342 13-153 69-249 159-450 143-168-13-262-86-408-92-93-4-184 26-317 86-75 34-89-15 0-49Z"/>
  <path fill="white" d="M112 456c171-59 323-61 460-21 131 39 249 72 414 20 120-38 220-103 354-109 91-4 165 19 235 49-112 22-205 17-309 60-156 64-289 86-453 45-123-31-235-67-391-61-96 4-184 17-310 17Z" opacity=".68"/>
</svg>
