<svg width="2048" height="2048" viewBox="0 0 2048 2048" fill="none" xmlns="http://www.w3.org/2000/svg">
<g clip-path="url(#clip0_45_3)">
<path d="M383.457 0H1665.51C1693.52 4.97649 1712.17 4.80303 1742.45 12.095C1836.62 35.2023 1919.19 91.7234 1974.81 171.147C2013.54 226.495 2035.98 287.316 2044.81 353.809C2045.67 360.253 2046.12 378.364 2048 383.432V1107.83V1168.84V1254.27V1673.79C2046.27 1679.78 2046.16 1685.61 2045.38 1691.75C2041.96 1718.73 2037.34 1747.71 2027.71 1773.17C2024.71 1786 2015.45 1806.95 2009.67 1819.05C1976.27 1888.98 1923.51 1947.85 1857.66 1988.7C1809.91 2018.44 1756.28 2037.73 1700.44 2044.82C1693.18 2045.74 1682.43 2045.77 1675.75 2048H556.361H420.482H376.776H369.165C362.603 2045.58 333.097 2042.99 323.078 2041.02C276.523 2031.8 231.998 2014.3 191.614 1989.37C102.395 1934.74 38.0679 1847.39 12.3633 1745.98C7.07186 1724.86 3.39347 1703.83 1.98676 1682.12C1.66625 1677.17 1.27929 1672.29 0 1667.49V389.183C1.67582 383.192 1.81391 368.45 2.59405 361.463C3.67008 351.827 4.91904 343.047 6.58096 333.466C17.4303 271.216 42.7346 212.38 80.4596 161.688C136.346 86.5549 216.858 33.4507 307.926 11.6558C337.626 4.62652 354.897 4.27412 383.457 0Z" fill="black"/>
<path d="M1786.23 946.072C1853.15 1062 1947.73 1166.3 2048 1254.27V1673.79C2046.27 1679.78 2046.16 1685.61 2045.38 1691.75C2041.96 1718.73 2037.34 1747.71 2027.71 1773.17C2024.71 1786 2015.45 1806.95 2009.67 1819.05C1976.27 1888.98 1923.51 1947.85 1857.66 1988.7C1809.91 2018.44 1756.28 2037.73 1700.44 2044.82C1693.18 2045.74 1682.43 2045.77 1675.75 2048H556.361C553.059 1982.88 535.327 1906.49 518.016 1843.82C511.035 1818.55 501.328 1792.78 494.714 1768.09C490.064 1758.02 482.819 1733.56 478.296 1721.89C462.644 1681.47 448.422 1635.65 431.31 1596.05C493.914 1642.26 573.613 1669.76 651.743 1664.26C753.176 1657.11 845.809 1609.06 929.611 1554.63C994.203 1513.3 1054.11 1465.08 1108.28 1410.81C1168.12 1350.15 1216.6 1275.14 1290.71 1232.8C1341.56 1203.74 1395.18 1202.52 1451.31 1192.87C1523.69 1180.43 1592.96 1156.06 1654.18 1114.84C1719.38 1070.95 1769.84 1026.54 1786.23 946.072Z" fill="#9759D8"/>
<path d="M1431.15 1251.22C1439.41 1250.8 1447.13 1252.32 1452.55 1259.13C1463.31 1272.67 1451.67 1292.26 1445.4 1304.93C1431.02 1333.99 1411.43 1358.56 1386.03 1378.65C1335.92 1418.31 1275.59 1430.2 1212.98 1422.68C1196.81 1420.96 1185.45 1410.48 1190.15 1392.37C1191.69 1386.47 1199.77 1381.28 1205.56 1380.12C1215.82 1378.07 1227.63 1381.4 1238 1381.84C1267.17 1382.84 1294.78 1378.33 1321.49 1366.96C1357.94 1351.63 1387.77 1323.87 1405.67 1288.61C1414.12 1271.85 1412.15 1259.09 1431.15 1251.22Z" fill="black"/>
<path d="M513.472 1748.25L513.765 1748.32C517.928 1751.59 515.518 1755.18 521.068 1755.95C523.649 1754.44 524.402 1753.65 527.356 1753.45C530.553 1755.77 529.333 1754.21 530.31 1758.88L528.099 1759.77C524.603 1758.44 515.645 1761.09 513.791 1754.33C513.196 1752.16 512.688 1750.33 513.472 1748.25Z" fill="#7942C8"/>
<path d="M732.714 1750.65C733.073 1750.64 742.041 1751.2 742.309 1751.36L742.171 1753.86C739.898 1755.59 738.345 1755.22 735.395 1755.23H734.197L733.432 1756.92L734.277 1758.61L731.769 1758.47L730.866 1757.39L731.495 1753.54C730.578 1754.9 730.34 1756.07 729.851 1757.62L727.541 1757.64C727.171 1757.28 726.801 1756.91 726.431 1756.55C727.217 1752.17 729.02 1751.88 732.714 1750.65Z" fill="#7942C8"/>
<path d="M713.706 1759.45L712.53 1758.29L712.099 1759.35L711.036 1758.46L711.602 1756.81C713.881 1755.16 715.69 1753.51 717.962 1751.83C719.421 1754.07 722.035 1754.08 724.878 1754.69L723.621 1754.89L723.34 1756.29C721.608 1758.25 721.584 1758.09 719.154 1759.18C716.217 1758.34 716.761 1758.71 713.706 1759.45Z" fill="#7942C8"/>
<path d="M912.416 1750.58C916.729 1750.96 920.549 1749.98 923.126 1752.35C921.544 1754.12 922.447 1753.58 920.588 1754.23L917.686 1756.09C913.695 1755.68 912.519 1755.22 908.632 1753.98C909.912 1752.14 909.071 1752.83 911.506 1752.26L912.416 1750.58Z" fill="#7942C8"/>
<path d="M500.735 1749.17C503.026 1751.37 504.153 1752.13 506.983 1753.71L506.617 1755.26L504.272 1756.31C501.127 1755.71 498.441 1755.92 497.106 1754L500.735 1749.17Z" fill="#7942C8"/>
<path d="M772.58 1750.84C773.032 1751.29 774.352 1753.17 774.785 1753.76L774.245 1755.16C769.613 1755.13 770.467 1756.43 766.803 1754.21C763.585 1754.93 763.757 1755.04 760.567 1754.41L760.807 1753.63C765.269 1752.2 767.949 1751.69 772.58 1750.84Z" fill="#7942C8"/>
<path d="M652.718 1751.14L654.491 1752.48L654.309 1754.14C652.2 1755.84 649.926 1755.99 647.218 1756.54C646.689 1755.75 646.051 1754.3 645.608 1753.38L646.553 1752.03L652.718 1751.14Z" fill="#7942C8"/>
<path d="M535.858 1751.23L537.579 1752.39C537.53 1755.77 536.816 1755.48 534.249 1758.88C532.506 1756.22 532.275 1756.54 531.789 1753.66L535.858 1751.23Z" fill="#7942C8"/>
<path d="M933.613 1750.9C935.068 1751.8 934.513 1751.15 935.113 1752.96C932.193 1753.95 931.822 1754.27 929.591 1756.41L928.953 1756.17C928.267 1753.09 928.091 1754.58 928.941 1751.63L933.613 1750.9Z" fill="#7942C8"/>
<path d="M674.233 1746.55C675.525 1749.52 675.172 1750.44 673.532 1753.16L671.299 1753.29L669.791 1752.37C671.6 1749.45 671.747 1749.18 674.233 1746.55Z" fill="#7942C8"/>
<path d="M811.921 1750.29C814.72 1751.54 815.878 1751.44 817.187 1753.56L814.819 1756.26C814.488 1756.55 812.936 1756.46 812.325 1756.49C811.035 1754.26 811.679 1753.44 811.921 1750.29Z" fill="#7942C8"/>
<path d="M1929.25 1750.33C1932.24 1752.2 1933.5 1753.25 1934.75 1756.44L1933.35 1757.35L1931.72 1755.53L1929.46 1756.05L1928.62 1755.46L1929.25 1750.33Z" fill="#7942C8"/>
<path d="M717.962 1751.83C718.17 1749.36 718.359 1746.99 718.682 1744.53L719.594 1746.06L721.995 1745.87L722.835 1747.46C720.9 1751.4 722.35 1749.88 717.962 1751.83Z" fill="#7942C8"/>
<path d="M1967.37 1749.97C1972.35 1750.85 1972.36 1751.04 1974.75 1755.09C1968.92 1754.66 1968.41 1755.55 1967.37 1749.97Z" fill="#7942C8"/>
<path d="M785.391 1750.63L790.036 1750.52L791.264 1751.94L790.805 1755.3L788.792 1755.34C785.748 1752.98 786.928 1754.43 785.391 1750.63Z" fill="#7942C8"/>
<path d="M830.08 1745.11C833.366 1745.39 833.185 1744.96 835.747 1746.5L835.745 1750C831.46 1749.72 832.865 1750.62 830.203 1748.49L830.08 1745.11Z" fill="#7942C8"/>
<path d="M936.779 1735.96C938.039 1735.99 940.379 1735.49 941.723 1735.26L942.76 1737.58L939.747 1740.01L938.489 1739.77L936.779 1735.96Z" fill="#7942C8"/>
<path d="M748.292 1751.04L751.192 1751.46L751.411 1752.54L748.035 1755.65L744.512 1754.7L744.526 1753.6L748.292 1751.04Z" fill="#7942C8"/>
<path d="M1866.42 1741.78C1869.66 1741.1 1868.01 1741.05 1871.47 1742.57L1871.51 1743.72L1870.76 1744.41C1868.12 1743.28 1868.76 1743.55 1866.42 1741.78Z" fill="#7942C8"/>
<path d="M1132.85 1745.61C1135.28 1749.33 1135.34 1749.16 1135.11 1752.54L1133.96 1752.81C1132.17 1750.65 1132.88 1749.25 1132.85 1745.61Z" fill="#7942C8"/>
<path d="M848.95 1736.85C850.705 1736.89 852.426 1736.84 854.176 1736.69L857.097 1739.78C850.58 1738.71 852.974 1741.02 848.95 1736.85Z" fill="#7942C8"/>
<path d="M1006.14 1741.66C1007.72 1742.43 1009.44 1743.61 1010.95 1744.56L1010.27 1746.04C1008.76 1745.33 1007.77 1745.34 1006.13 1745.13L1006.14 1741.66Z" fill="#7942C8"/>
<path d="M1213.21 1751.84C1214.09 1751.5 1215.41 1751.69 1216.5 1751.71L1216.49 1753.3L1213.31 1754L1213.21 1751.84Z" fill="#7942C8"/>
<path d="M383.457 0H1665.51C1693.52 4.97649 1712.17 4.80303 1742.45 12.095C1836.62 35.2023 1919.19 91.7234 1974.81 171.147C2013.54 226.495 2035.98 287.316 2044.81 353.809C2045.67 360.253 2046.12 378.364 2048 383.432V1107.83C1961.6 1021.77 1903.41 943.712 1844.38 836.334C1851.15 809.943 1855 788.706 1855.91 761.239C1859.18 663.054 1815.77 558.955 1766.84 476.084C1718.4 394.047 1650.7 311.426 1554.09 288.397C1511.39 278.217 1464.64 278.42 1421.9 289.02C1212.1 171.951 997.478 140.712 765.101 206.696L763.762 207.077C715.054 187.439 686.602 183.363 637.216 205.707C579.947 231.618 467.112 292.079 424.142 336.126C412.283 348.356 402.879 362.746 396.437 378.518C390.816 392.624 389.316 402.398 388.03 417.358C147.061 649.999 88.683 992.056 146.656 1311.67C126.801 1326.98 108.154 1340.28 104.66 1366.95C98.3271 1415.3 149.191 1518.77 178.959 1557.05C190.877 1572.37 205.775 1584.45 225.606 1586.92C231.229 1587.62 237.067 1587.45 242.703 1586.99C318.19 1742.53 380.792 1869.74 376.776 2048H369.165C362.603 2045.58 333.097 2042.99 323.078 2041.02C276.523 2031.8 231.998 2014.3 191.614 1989.37C102.395 1934.74 38.0679 1847.39 12.3633 1745.98C7.07186 1724.86 3.39347 1703.83 1.98676 1682.12C1.66625 1677.17 1.27929 1672.29 0 1667.49V389.183C1.67582 383.192 1.81391 368.45 2.59405 361.463C3.67008 351.827 4.91904 343.047 6.58096 333.466C17.4303 271.216 42.7346 212.38 80.4596 161.688C136.346 86.5549 216.858 33.4507 307.926 11.6558C337.626 4.62652 354.897 4.27412 383.457 0Z" fill="black"/>
<path d="M1785.45 943.42L1786.23 946.072C1769.84 1026.54 1719.38 1070.95 1654.18 1114.84C1592.96 1156.06 1523.69 1180.43 1451.31 1192.87C1395.18 1202.52 1341.56 1203.74 1290.71 1232.8C1216.6 1275.14 1168.12 1350.15 1108.28 1410.81C1054.11 1465.08 994.203 1513.3 929.611 1554.63C845.809 1609.06 753.176 1657.11 651.743 1664.26C573.613 1669.76 493.914 1642.26 431.31 1596.05C448.422 1635.65 462.644 1681.47 478.296 1721.89C482.819 1733.56 490.064 1758.02 494.714 1768.09C501.328 1792.78 511.035 1818.55 518.016 1843.82C535.327 1906.49 553.059 1982.88 556.361 2048H420.482C426.706 1869.94 356.861 1723.55 281.916 1567.97C331.525 1535.01 381.299 1502.3 431.237 1469.83C473.926 1522.12 522.543 1562.46 589.906 1578.47C616.251 1584.73 640.263 1586.76 667.342 1585.11C715.439 1582.19 761.434 1567.49 804.556 1546.5C817.012 1540.44 829.123 1533.03 841.465 1526.71C923.214 1491.73 997.932 1442.7 1068.48 1388.96C1094.42 1369.2 1118.89 1351.21 1142.03 1327.67C1158.26 1310.9 1173.64 1293.33 1188.12 1275.03C1219.25 1236.14 1244.02 1199.81 1288.08 1173.32C1339.88 1142.18 1392.03 1145.33 1449.12 1136.01C1467.91 1132.94 1493.94 1127.89 1511.94 1121.5C1608.92 1087.06 1717.61 1020.67 1785.45 943.42Z" fill="#6F37BD"/>
<path d="M1785.45 943.42C1801.2 923.512 1811.4 909.523 1823.55 886.9C1871.05 970.39 1928.87 1047.57 1995.66 1116.61C2010.9 1132.6 2031.59 1154.02 2048 1168.84V1254.27C1947.73 1166.3 1853.15 1062 1786.23 946.072L1785.45 943.42Z" fill="#D292F0"/>
<path d="M1595.03 350.385C1598.96 351.568 1610.98 359.669 1614.45 362.153C1652.26 389.178 1687.02 430.249 1712.15 469.419C1772.44 563.382 1831.79 691.525 1808.15 805.641C1785.97 912.706 1696.13 979.31 1607.15 1030.59C1566.48 1054.02 1521.3 1076.71 1475.65 1087.82C1399.02 1106.47 1335.47 1094.06 1264.26 1138.18C1202.1 1176.69 1175.4 1227.58 1128.33 1280.75C1100.26 1312.46 1069.07 1338.26 1032.92 1360.97C950.623 1412.67 848.233 1471.83 747.379 1451.6C672.391 1436.56 612.995 1372.15 574.226 1309.71C517.496 1218.33 446.883 1071.08 471.785 960.475C493.161 865.531 558.731 815.204 633.585 764.681C665.485 743.326 697.673 722.405 730.141 701.924C877.334 610.061 1027.96 523.808 1181.68 443.35C1221.15 422.533 1260.9 402.235 1300.9 382.46C1328.13 368.985 1361.71 352.582 1390 342.333C1425.4 329.506 1486.84 317.945 1522.84 325.992C1541.33 327.11 1580.19 339.318 1595.03 350.385Z" fill="#AE8AD9"/>
<path d="M1522.84 325.992C1541.33 327.11 1580.19 339.318 1595.03 350.385C1589.83 350.548 1576.22 343.449 1575.74 343.649C1574.38 344.215 1574.97 345.749 1572.45 346.582C1572.07 346.204 1570.64 344.818 1570.43 344.562C1561.21 333.446 1528.66 332.586 1522.84 325.992Z" fill="#DEAEF7"/>
<path d="M1476.97 373.414C1525.15 368.035 1580.73 385.357 1616.17 417.778C1689.13 484.543 1762.37 624.549 1770.11 721.867C1773.98 766.004 1763.98 810.248 1741.51 848.433C1730.21 867.351 1712.9 888.226 1696.71 903.08C1642.3 953.025 1543.57 1013.19 1472.61 1031.41C1395.31 1051.27 1334.36 1036.09 1256.77 1077.98C1172.57 1123.45 1154.85 1170.92 1099.72 1237.13C1043.88 1304.21 896.254 1391.4 809.245 1398.41C683.957 1410.64 607.088 1287.84 561.212 1189.52C513.93 1088.18 487.442 977.884 566.678 883.848C578.764 869.604 592.241 856.601 606.907 845.031C624.898 830.653 646.015 816.572 665.174 803.539C704.74 776.759 744.9 750.867 785.622 725.88C900.036 655.277 1016.52 588.087 1134.92 524.399C1187.67 495.923 1240.83 468.22 1294.39 441.299C1351.74 412.504 1412.3 379.167 1476.97 373.414Z" fill="black"/>
<path d="M1489.99 402.468C1595.82 398.392 1654.49 500.014 1695.86 582.818C1734.36 659.881 1764.39 752.695 1716.26 832.954C1705.11 851.14 1691.5 867.696 1675.82 882.155C1627.88 927.195 1530.28 986.363 1467.07 1002.21C1387.71 1022.12 1316.74 1008.55 1239.7 1053.6C1185.09 1085.52 1149.75 1117.51 1113.76 1170.82C1076.8 1225.97 1031.91 1267.77 974.317 1300.78C920.204 1331.79 861.537 1367.17 797.332 1369.18C758.748 1369.13 718.565 1355.88 689.868 1328.05C618.664 1259 554.033 1129.52 545.278 1030.29C541 981.805 563.282 930.252 595.139 896.066C620.278 869.091 649.457 849.809 679.721 829.171C717.683 803.403 756.242 778.524 795.365 754.555C934.231 668.381 1076.29 587.466 1221.25 511.98C1260.52 491.259 1300.14 471.179 1340.07 451.747C1392.5 426.242 1430.45 405.711 1489.99 402.468Z" fill="#292D38"/>
<path d="M1475.84 449.219C1484.33 448.854 1490.57 449.19 1498.47 453.278C1508.64 458.628 1516.2 467.897 1519.38 478.943C1530.92 518.422 1492.32 526.725 1465.75 538.008C1445.39 546.705 1425.26 555.926 1405.38 565.663C1378 579.115 1350.86 593.06 1323.99 607.493C1310.24 614.898 1285.21 630.802 1271.63 634.251C1262.03 634.718 1254.55 634.139 1245.95 629.196C1235.9 623.391 1228.74 613.646 1226.21 602.323C1222.47 585.652 1229.08 570.238 1243.66 561.478C1261.19 550.948 1279.44 541.505 1297.56 532.005C1342.85 507.702 1389.08 485.167 1436.12 464.451C1446.1 460.161 1465.63 451.42 1475.84 449.219Z" fill="#42C5B8"/>
<path d="M1324.74 377.11L1324.39 380.144C1322.14 383.27 1323.59 382.028 1319.47 383.441L1318.55 380.285C1320.46 377.471 1320.4 378.295 1324.74 377.11Z" fill="#DEAEF7"/>
<path d="M1384.36 347.942C1388.04 347.88 1386.93 347.413 1389.95 348.788C1387.54 350.833 1387.15 350.296 1383.55 350.94C1381.44 352.153 1381.17 352.321 1378.88 353.089C1380.28 350.226 1381.5 349.981 1384.36 347.942Z" fill="#DEAEF7"/>
<path d="M494.169 385.095C598.449 376.092 734.513 540.459 788.387 616.332C775.386 624.283 760.538 632.909 747.949 641.231C710.84 664.102 674.473 688.019 637.613 711.075C588.204 740.822 539.897 771.121 492.769 804.423C472.069 819.05 455.692 834.91 436.19 850.003C369.895 901.307 315.052 959.204 295.172 1044.19C291.121 1061.94 288.681 1080.01 287.88 1098.2C287.478 1136.99 289.326 1156.7 296.842 1194.83C260.234 1223.95 221.95 1253.02 184.874 1281.67C169.771 1196.69 165.064 1110.19 170.857 1024.07C184.081 797.18 263.575 584.996 435.923 431.568C453.801 414.902 474.324 399.339 494.169 385.095Z" fill="#CE84EE"/>
<path d="M184.874 1281.67C169.771 1196.69 165.064 1110.19 170.857 1024.07C184.081 797.18 263.575 584.996 435.923 431.568L443.074 431.336C303.626 597.726 256.722 789.477 272.953 1004.97C273.876 1017.23 282.483 1092.34 286.913 1098.79L287.88 1098.2C287.478 1136.99 289.326 1156.7 296.842 1194.83C260.234 1223.95 221.95 1253.02 184.874 1281.67Z" fill="#8F4DC9"/>
<path d="M494.169 385.095C598.449 376.092 734.513 540.459 788.387 616.332C775.386 624.283 760.538 632.909 747.949 641.231C692.62 569.363 548.653 394.94 443.074 431.336L435.923 431.568C453.801 414.902 474.324 399.339 494.169 385.095Z" fill="#7942C8"/>
<path d="M689.436 233.204C720.47 231.228 752.845 247.005 778.552 263.133C868.915 319.826 944.462 404.279 1007.58 489.257C946.412 523.505 885.67 558.512 825.369 594.269L815.147 580.309C747.329 492.294 607.236 321.111 480.295 344.472C522.752 314.16 639.661 242.529 689.436 233.204Z" fill="#292D38"/>
<path d="M817.449 236.932C974.018 202.392 1116.34 209.165 1268.12 264.601C1295.12 274.46 1338.36 292.272 1363.17 306.837C1335.65 318.18 1311.86 329.743 1285.16 342.787C1204.36 383.063 1124.39 424.957 1045.27 468.443C994.036 400.357 946.406 344.171 882.236 287.539C861.619 269.453 839.988 252.556 817.449 236.932Z" fill="#D292F0"/>
<path d="M817.449 236.932C974.018 202.392 1116.34 209.165 1268.12 264.601C1295.12 274.46 1338.36 292.272 1363.17 306.837C1335.65 318.18 1311.86 329.743 1285.16 342.787C1272.05 334.971 1249.72 326.292 1235.47 320.755C1140.25 283.755 1035.43 266.578 933.599 278.964C917.093 280.972 898.259 283.3 882.236 287.539C861.619 269.453 839.988 252.556 817.449 236.932Z" fill="#DEAEF7"/>
<path d="M372.599 1190.76C375.367 1191.69 377.376 1197.78 378.657 1200.68C407.446 1266 440.883 1327.33 475.713 1389.52L244.73 1541.12C240.897 1543.19 236.47 1545.36 231.997 1544.82C224.129 1543.87 217.92 1536.97 213.334 1531.04C193.237 1505.04 141.981 1404.02 147.006 1372.09C147.845 1366.76 152.47 1362.26 156.252 1358.71C175.948 1340.21 205.652 1319.51 227.583 1302.52L372.599 1190.76Z" fill="#292D38"/>
<path d="M428.973 1023.24C428.827 1015.69 428.511 1008.08 429.908 1000.67C429.955 1024.79 430.291 1051.08 435.673 1074.92C463.056 1196.26 522.341 1322.07 608.559 1412.64C678.333 1485.94 766.575 1507.52 863.436 1484.26C797.091 1518.56 721.376 1531.66 648.263 1509.89C597.32 1494.72 543.624 1454.99 514.233 1410.34C527.133 1381.64 508.688 1359.72 494.878 1335.15C483.756 1315.51 473.005 1295.66 462.631 1275.62C450.779 1252.36 439.273 1228.92 428.118 1205.31C416.921 1181.36 410.802 1154.82 384.341 1145.16C377.464 1114.93 374.898 1096.12 374.662 1064.41C391.57 1049.05 410.553 1036.71 428.973 1023.24Z" fill="#7C6DAA"/>
<path d="M490.464 1430.82C493.548 1431.71 504.638 1445.83 507.696 1449.41C561.136 1511.91 627.3 1543.18 708.581 1549.7C696.293 1551.64 683.972 1553.36 671.623 1554.86C578.81 1560.95 512.868 1525.25 456.277 1453.38C467.549 1445.67 478.946 1438.15 490.464 1430.82Z" fill="#292D38"/>
<path d="M374.662 1064.41C374.725 1058.58 374.939 1052.76 375.305 1046.94C380.474 966.853 421.671 904.357 480.111 852.678C447.841 903.036 434.019 940.426 429.908 1000.67C428.511 1008.08 428.827 1015.69 428.973 1023.24C410.553 1036.71 391.57 1049.05 374.662 1064.41Z" fill="#DEAEF7"/>
<path d="M364.614 961.98C364.533 964.992 358.156 983.565 356.88 987.696C340.124 1041.93 343.318 1095.62 355.612 1150.1C345.669 1157.33 335.432 1165.44 325.631 1172.96C324.494 1173.92 325.265 1173.47 323.069 1173.75C320.771 1169.64 318.524 1145.38 317.838 1139.08C311.798 1083.51 327.77 1005.74 364.614 961.98Z" fill="#292D38"/>
</g>
<defs>
<clipPath id="clip0_45_3">
<rect width="2048" height="2048" fill="white"/>
</clipPath>
</defs>
</svg>
